# xmcd CD database file
#
# Track frame offsets:
#	150
#	14935
#	28740
#	45165
#	65375
#	81630
#	94510
#	111572
#	130777
#	147872
#	164577
#	179065
#	192977
#	208487
#	223182
#	238397
#	253162
#
# Disc length: 3630 seconds
#
# Revision: 0
# Processed by: cddbd v1.5.2PL0 Copyright (c) Steve Scherf et al.
# Submitted via: CDex 1.70beta3
#
DISCID=150e2c11
DTITLE=Stevie Hoang - FOREVER
DYEAR=2015
DGENRE=avex
TTITLE0=CRAZY LOVE
TTITLE1=FLY AWAY feat. Da-iCE
TTITLE2=MY LOVE
TTITLE3=DON'T WANNA FALL
TTITLE4=MUSIC FOR LOVE
TTITLE5=ONE LAST TIME (Mumzy Stranger and A ndrea Galaxy)
TTITLE6=BEFORE SHE GOES
TTITLE7=17
TTITLE8=SHADOW
TTITLE9=ONE LAST CRY
TTITLE10=THINKING OF YOU
TTITLE11=SUMMER FOREVER
TTITLE12=GIRL LIKE YOU
TTITLE13=SOMEBODY'S GIRL
TTITLE14=IN LOVE ALONE
TTITLE15=THE WAY THAT I LOVED YOU
TTITLE16=ALL NIGHT LONG (Christmas Acoustic Version)
EXTD=YEAR: 2015
EXTT0=
EXTT1=
EXTT2=
EXTT3=
EXTT4=
EXTT5=
EXTT6=
EXTT7=
EXTT8=
EXTT9=
EXTT10=
EXTT11=
EXTT12=
EXTT13=
EXTT14=
EXTT15=
EXTT16=
PLAYORDER=
